<svg id="visual" viewBox="0 0 900 450" width="900" height="450" xmlns="http://www.w3.org/2000/svg" xmlns:xlink="http://www.w3.org/1999/xlink" version="1.1"><rect x="0" y="0" width="900" height="450" fill="#001220"></rect><path d="M0 118L30 112.7C60 107.3 120 96.7 180 94.5C240 92.3 300 98.7 360 107.5C420 116.3 480 127.7 540 125.2C600 122.7 660 106.3 720 101.7C780 97 840 104 870 107.5L900 111L900 0L870 0C840 0 780 0 720 0C660 0 600 0 540 0C480 0 420 0 360 0C300 0 240 0 180 0C120 0 60 0 30 0L0 0Z" fill="#e98b3a"></path><path d="M0 83L30 82.7C60 82.3 120 81.7 180 86.3C240 91 300 101 360 105.8C420 110.7 480 110.3 540 102.5C600 94.7 660 79.3 720 74.2C780 69 840 74 870 76.5L900 79L900 0L870 0C840 0 780 0 720 0C660 0 600 0 540 0C480 0 420 0 360 0C300 0 240 0 180 0C120 0 60 0 30 0L0 0Z" fill="#e27731"></path><path d="M0 47L30 45.8C60 44.7 120 42.3 180 42.3C240 42.3 300 44.7 360 51.5C420 58.3 480 69.7 540 72C600 74.3 660 67.7 720 68C780 68.3 840 75.7 870 79.3L900 83L900 0L870 0C840 0 780 0 720 0C660 0 600 0 540 0C480 0 420 0 360 0C300 0 240 0 180 0C120 0 60 0 30 0L0 0Z" fill="#dc632b"></path><path d="M0 40L30 39.8C60 39.7 120 39.3 180 36.7C240 34 300 29 360 28C420 27 480 30 540 32.7C600 35.3 660 37.7 720 40.8C780 44 840 48 870 50L900 52L900 0L870 0C840 0 780 0 720 0C660 0 600 0 540 0C480 0 420 0 360 0C300 0 240 0 180 0C120 0 60 0 30 0L0 0Z" fill="#d44d27"></path></svg>