<svg id="visual" viewBox="0 0 900 450" width="900" height="450" xmlns="http://www.w3.org/2000/svg" xmlns:xlink="http://www.w3.org/1999/xlink" version="1.1"><rect x="0" y="0" width="900" height="450" fill="#001220"></rect><path d="M594 450L604.8 439.3C615.7 428.7 637.3 407.3 629.5 385.8C621.7 364.3 584.3 342.7 582.5 321.2C580.7 299.7 614.3 278.3 617.2 257C620 235.7 592 214.3 586 193C580 171.7 596 150.3 605 128.8C614 107.3 616 85.7 615.3 64.2C614.7 42.7 611.3 21.3 609.7 10.7L608 0L900 0L900 10.7C900 21.3 900 42.7 900 64.2C900 85.7 900 107.3 900 128.8C900 150.3 900 171.7 900 193C900 214.3 900 235.7 900 257C900 278.3 900 299.7 900 321.2C900 342.7 900 364.3 900 385.8C900 407.3 900 428.7 900 439.3L900 450Z" fill="#f2a74b"></path><path d="M694 450L693.5 439.3C693 428.7 692 407.3 684.5 385.8C677 364.3 663 342.7 665.2 321.2C667.3 299.7 685.7 278.3 693 257C700.3 235.7 696.7 214.3 679.5 193C662.3 171.7 631.7 150.3 620.3 128.8C609 107.3 617 85.7 625.5 64.2C634 42.7 643 21.3 647.5 10.7L652 0L900 0L900 10.7C900 21.3 900 42.7 900 64.2C900 85.7 900 107.3 900 128.8C900 150.3 900 171.7 900 193C900 214.3 900 235.7 900 257C900 278.3 900 299.7 900 321.2C900 342.7 900 364.3 900 385.8C900 407.3 900 428.7 900 439.3L900 450Z" fill="#e98b3a"></path><path d="M726 450L715.3 439.3C704.7 428.7 683.3 407.3 673.5 385.8C663.7 364.3 665.3 342.7 674 321.2C682.7 299.7 698.3 278.3 714.7 257C731 235.7 748 214.3 745.8 193C743.7 171.7 722.3 150.3 714.2 128.8C706 107.3 711 85.7 722.3 64.2C733.7 42.7 751.3 21.3 760.2 10.7L769 0L900 0L900 10.7C900 21.3 900 42.7 900 64.2C900 85.7 900 107.3 900 128.8C900 150.3 900 171.7 900 193C900 214.3 900 235.7 900 257C900 278.3 900 299.7 900 321.2C900 342.7 900 364.3 900 385.8C900 407.3 900 428.7 900 439.3L900 450Z" fill="#df6d2e"></path><path d="M777 450L776.8 439.3C776.7 428.7 776.3 407.3 777.7 385.8C779 364.3 782 342.7 774.5 321.2C767 299.7 749 278.3 753.8 257C758.7 235.7 786.3 214.3 791.7 193C797 171.7 780 150.3 778.3 128.8C776.7 107.3 790.3 85.7 794.7 64.2C799 42.7 794 21.3 791.5 10.7L789 0L900 0L900 10.7C900 21.3 900 42.7 900 64.2C900 85.7 900 107.3 900 128.8C900 150.3 900 171.7 900 193C900 214.3 900 235.7 900 257C900 278.3 900 299.7 900 321.2C900 342.7 900 364.3 900 385.8C900 407.3 900 428.7 900 439.3L900 450Z" fill="#d44d27"></path><path d="M854 450L846.2 439.3C838.3 428.7 822.7 407.3 820.5 385.8C818.3 364.3 829.7 342.7 832.8 321.2C836 299.7 831 278.3 827.8 257C824.7 235.7 823.3 214.3 827 193C830.7 171.7 839.3 150.3 845.8 128.8C852.3 107.3 856.7 85.7 851.3 64.2C846 42.7 831 21.3 823.5 10.7L816 0L900 0L900 10.7C900 21.3 900 42.7 900 64.2C900 85.7 900 107.3 900 128.8C900 150.3 900 171.7 900 193C900 214.3 900 235.7 900 257C900 278.3 900 299.7 900 321.2C900 342.7 900 364.3 900 385.8C900 407.3 900 428.7 900 439.3L900 450Z" fill="#c72424"></path></svg>