<?xml version="1.0" encoding="utf-8"?><svg xmlns="http://www.w3.org/2000/svg" xmlns:xlink="http://www.w3.org/1999/xlink" width="1528" height="740" preserveAspectRatio="xMidYMid" viewBox="0 0 1528 740" style="z-index:1;margin-right:-1.6px;display:block;background-color:rgb(255, 255, 255);animation-play-state:paused" ><g transform="translate(764,370) scale(1,1) translate(-764,-370)" style="transform:matrix(1, 0, 0, 1, 0, 0);animation-play-state:paused" ><path id="path0" d="M 424.6051106973575 18.104233853154934
c 0 29.31815437396885 -7.173590963843441 8.421172001033606 -15.594762964877047 8.421172001033606
S 393.41558476760343 47.42238822712378 393.41558476760343 18.104233853154934
s 7.173590963843441 -8.421172001033606 15.594762964877047 -8.421172001033606
S 424.6051106973575 -11.213920520813915 424.6051106973575 18.104233853154934
z" fill="none" stroke="none" style="animation-play-state:paused" ></path>


<circle cx="0" cy="0" r="6.521704741123606" fill="#eef3ef" opacity="0.9" transform="translate(403.1828918457031 7.005942344665527)" style="opacity:0.9;animation-play-state:paused" ></circle>
<path id="path1" d="M 1126.4430834241005 713.3231888049729
c 0 27.25131081104324 -6.667873921851005 7.827504169129441 -14.495378090980447 7.827504169129441
S 1097.4523272421395 740.5744996160162 1097.4523272421395 713.3231888049729
s 6.667873921851005 -7.827504169129441 14.495378090980447 -7.827504169129441
S 1126.4430834241005 686.0718779939297 1126.4430834241005 713.3231888049729
z" fill="none" stroke="none" style="animation-play-state:paused" ></path>


<circle cx="0" cy="0" r="4.015073724985391" fill="#4b9bbe" opacity="0.9" transform="translate(1103.450927734375 726.253662109375)" style="opacity:0.9;animation-play-state:paused" ></circle>
<path id="path2" d="M 993.3826839501083 573.4627242683143
c 0 36.2844191840158 -8.878102566301738 10.422120403919434 -19.30022297022117 10.422120403919434
S 954.782238009666 609.7471434523302 954.782238009666 573.4627242683143
s 8.878102566301738 -10.422120403919434 19.30022297022117 -10.422120403919434
S 993.3826839501083 537.1783050842985 993.3826839501083 573.4627242683143
z" fill="none" stroke="none" style="animation-play-state:paused" ></path>


<circle cx="0" cy="0" r="6.388203488383637" fill="#4b9bbe" opacity="0.9" transform="translate(987.1212768554688 554.9552612304688)" style="opacity:0.9;animation-play-state:paused" ></circle>
<path id="path3" d="M 106.47764330244249 463.8261332188407
c 0 19.85234188825937 -4.85748790882942 5.7022684147127976 -10.559756323542217 5.7022684147127976
S 85.35813065535805 483.6784751071001 85.35813065535805 463.8261332188407
s 4.85748790882942 -5.7022684147127976 10.559756323542217 -5.7022684147127976
S 106.47764330244249 443.9737913305813 106.47764330244249 463.8261332188407
z" fill="none" stroke="none" style="animation-play-state:paused" ></path>


<circle cx="0" cy="0" r="5.148192844532979" fill="#3e6d8d" opacity="0.9" transform="translate(85.50020599365234 458.83990478515625)" style="opacity:0.9;animation-play-state:paused" ></circle>
<path id="path4" d="M 676.4734063336106 693.9764591691297
c 0 33.59784205571319 -8.220748588100035 9.650443994726128 -17.87119258282616 9.650443994726128
S 640.7310211679581 727.5743012248429 640.7310211679581 693.9764591691297
s 8.220748588100035 -9.650443994726128 17.87119258282616 -9.650443994726128
S 676.4734063336106 660.3786171134166 676.4734063336106 693.9764591691297
z" fill="none" stroke="none" style="animation-play-state:paused" ></path>


<circle cx="0" cy="0" r="5.493391729323301" fill="#c93228" opacity="0.9" transform="translate(661.5775756835938 683.6323852539062)" style="opacity:0.9;animation-play-state:paused" ></circle>
<path id="path5" d="M 1173.168881906802 175.11348744417427
c 0 19.77774821281512 -4.839236264837741 5.6808425717660445 -10.520078836603785 5.6808425717660445
S 1152.1287242335945 194.89123565698938 1152.1287242335945 175.11348744417427
s 4.839236264837741 -5.6808425717660445 10.520078836603785 -5.6808425717660445
S 1173.168881906802 155.33573923135916 1173.168881906802 175.11348744417427
z" fill="none" stroke="none" style="animation-play-state:paused" ></path>


<circle cx="0" cy="0" r="6.481540060801919" fill="#3e6d8d" opacity="0.9" transform="translate(1152.5098876953125 167.8509521484375)" style="opacity:0.9;animation-play-state:paused" ></circle>
<path id="path6" d="M 1426.5221245199948 440.98762242663867
c 0 22.593664313557458 -5.528237012891718 6.489669536872888 -12.017906549764605 6.489669536872888
S 1402.4863114204657 463.5812867401961 1402.4863114204657 440.98762242663867
s 5.528237012891718 -6.489669536872888 12.017906549764605 -6.489669536872888
S 1426.5221245199948 418.3939581130812 1426.5221245199948 440.98762242663867
z" fill="none" stroke="none" style="animation-play-state:paused" ></path>


<circle cx="0" cy="0" r="5.733693732494323" fill="#eef3ef" opacity="0.9" transform="translate(1426.36865234375 446.541259765625)" style="opacity:0.9;animation-play-state:paused" ></circle>
<path id="path7" d="M 995.3736683655766 57.29118272946212
c 0 24.08314965508216 -5.892685553903082 6.917500432842749 -12.81018598674583 6.917500432842749
S 969.7532963920848 81.37433238454429 969.7532963920848 57.29118272946212
s 5.892685553903082 -6.917500432842749 12.81018598674583 -6.917500432842749
S 995.3736683655766 33.20803307437996 995.3736683655766 57.29118272946212
z" fill="none" stroke="none" style="animation-play-state:paused" ></path>


<circle cx="0" cy="0" r="6.295498936891296" fill="#eef3ef" opacity="0.9" transform="translate(995.1884765625 63.52061080932617)" style="opacity:0.9;animation-play-state:paused" ></circle>
<path id="path8" d="M 986.9512186743683 550.9843909251283
c 0 36.128265303631395 -8.83989470195236 10.377267693596252 -19.217162395548613 10.377267693596252
S 948.5168938832711 587.1126562287598 948.5168938832711 550.9843909251283
s 8.83989470195236 -10.377267693596252 19.217162395548613 -10.377267693596252
S 986.9512186743683 514.8561256214969 986.9512186743683 550.9843909251283
z" fill="none" stroke="none" style="animation-play-state:paused" ></path>


<circle cx="0" cy="0" r="6.938065733779393" fill="#c93228" opacity="0.9" transform="translate(986.7139282226562 559.739990234375)" style="opacity:0.9;animation-play-state:paused" ></circle>
<path id="path9" d="M 376.61673222581135 435.904573867437
c 0 23.965063744541794 -5.863792192813417 6.883582139389664 -12.74737433220308 6.883582139389664
S 351.12198356140516 459.8696376119788 351.12198356140516 435.904573867437
s 5.863792192813417 -6.883582139389664 12.74737433220308 -6.883582139389664
S 376.61673222581135 411.93951012289523 376.61673222581135 435.904573867437
z" fill="none" stroke="none" style="animation-play-state:paused" ></path>


<circle cx="0" cy="0" r="6.499779064148832" fill="#f9aa47" opacity="0.9" transform="translate(361.2052001953125 443.54888916015625)" style="opacity:0.9;animation-play-state:paused" ></circle>
<path id="path10" d="M 98.28344911089349 264.55223493403673
c 0 19.481196129742735 -4.76667564876684 5.595662718117595 -10.362338366884433 5.595662718117595
S 77.55877237712463 284.03343106377946 77.55877237712463 264.55223493403673
s 4.76667564876684 -5.595662718117595 10.362338366884433 -5.595662718117595
S 98.28344911089349 245.071038804294 98.28344911089349 264.55223493403673
z" fill="none" stroke="none" style="animation-play-state:paused" ></path>


<circle cx="0" cy="0" r="4.0882462897321155" fill="#f9aa47" opacity="0.9" transform="translate(97.39353942871094 255.3115997314453)" style="opacity:0.9;animation-play-state:paused" ></circle>
<path id="path11" d="M 400.4145387108485 627.4252494908959
c 0 36.981714104377055 -9.048717280858215 10.622407242746602 -19.671124523604817 10.622407242746602
S 361.07228966363886 664.4069635952729 361.07228966363886 627.4252494908959
s 9.048717280858215 -10.622407242746602 19.671124523604817 -10.622407242746602
S 400.4145387108485 590.4435353865189 400.4145387108485 627.4252494908959
z" fill="none" stroke="none" style="animation-play-state:paused" ></path>


<circle cx="0" cy="0" r="4.006565840908871" fill="#c93228" opacity="0.9" transform="translate(361.0905456542969 630.1593017578125)" style="opacity:0.9;animation-play-state:paused" ></circle>
<path id="path12" d="M 1359.3946918636311 273.8880178902514
c 0 21.402474066008974 -5.236775569342621 6.147519146619599 -11.38429471596222 6.147519146619599
S 1336.6261024317068 295.2904919562603 1336.6261024317068 273.8880178902514
s 5.236775569342621 -6.147519146619599 11.38429471596222 -6.147519146619599
S 1359.3946918636311 252.4855438242424 1359.3946918636311 273.8880178902514
z" fill="none" stroke="none" style="animation-play-state:paused" ></path>


<circle cx="0" cy="0" r="5.4188610918775435" fill="#c93228" opacity="0.9" transform="translate(1336.8358154296875 279.9947204589844)" style="opacity:0.9;animation-play-state:paused" ></circle>
<path id="path13" d="M 274.21439773584314 178.64419565226166
c 0 25.379455935344808 -6.209866877797133 7.2898437261096785 -13.499710603906811 7.2898437261096785
S 247.21497652802952 204.02365158760648 247.21497652802952 178.64419565226166
s 6.209866877797133 -7.2898437261096785 13.499710603906811 -7.2898437261096785
S 274.21439773584314 153.26473971691684 274.21439773584314 178.64419565226166
z" fill="none" stroke="none" style="animation-play-state:paused" ></path>


<circle cx="0" cy="0" r="7.96763801878077" fill="#f9aa47" opacity="0.9" transform="translate(274.1864013671875 175.8712921142578)" style="opacity:0.9;animation-play-state:paused" ></circle>
<path id="path14" d="M 1392.8280141101723 580.464900031462
c 0 30.797879689512623 -7.535651413391386 8.84619948528554 -16.381850898676927 8.84619948528554
S 1360.0643123128184 611.2627797209745 1360.0643123128184 580.464900031462
s 7.535651413391386 -8.84619948528554 16.381850898676927 -8.84619948528554
S 1392.8280141101723 549.6670203419494 1392.8280141101723 580.464900031462
z" fill="none" stroke="none" style="animation-play-state:paused" ></path>


<circle cx="0" cy="0" r="7.795425897295753" fill="#f9aa47" opacity="0.9" transform="translate(1362.17724609375 564.6538696289062)" style="opacity:0.9;animation-play-state:paused" ></circle>
<path id="path15" d="M 208.69264413747564 327.87810538990516
c 0 31.304924636185177 -7.659715602470841 8.991840055074466 -16.65155565754531 8.991840055074466
S 175.389532822385 359.18303002609036 175.389532822385 327.87810538990516
s 7.659715602470841 -8.991840055074466 16.65155565754531 -8.991840055074466
S 208.69264413747564 296.57318075371995 208.69264413747564 327.87810538990516
z" fill="none" stroke="none" style="animation-play-state:paused" ></path>


<circle cx="0" cy="0" r="7.813069775120678" fill="#3e6d8d" opacity="0.9" transform="translate(207.37567138671875 313.3223571777344)" style="opacity:0.9;animation-play-state:paused" ></circle>
<path id="path16" d="M 876.6335577219228 412.17861331330107
c 0 29.709336518075332 -7.269305743784389 8.533532829659936 -15.802838573444324 8.533532829659936
S 845.0278805750341 441.88794983137643 845.0278805750341 412.17861331330107
s 7.269305743784389 -8.533532829659936 15.802838573444324 -8.533532829659936
S 876.6335577219228 382.4692767952257 876.6335577219228 412.17861331330107
z" fill="none" stroke="none" style="animation-play-state:paused" ></path>


<circle cx="0" cy="0" r="4.163199732752709" fill="#f9aa47" opacity="0.9" transform="translate(876.561279296875 407.5174560546875)" style="opacity:0.9;animation-play-state:paused" ></circle>
<path id="path17" d="M 1123.9151954126244 395.960622558239
c 0 18.925479318552973 -4.630702386454451 5.436041931924791 -10.066744318379241 5.436041931924791
S 1103.7817067758658 414.88610187679194 1103.7817067758658 395.960622558239
s 4.630702386454451 -5.436041931924791 10.066744318379241 -5.436041931924791
S 1123.9151954126244 377.035143239686 1123.9151954126244 395.960622558239
z" fill="none" stroke="none" style="animation-play-state:paused" ></path>


<circle cx="0" cy="0" r="6.828135753550474" fill="#f9aa47" opacity="0.9" transform="translate(1109.0084228515625 387.8896179199219)" style="opacity:0.9;animation-play-state:paused" ></circle>
<path id="path18" d="M 1251.423728642855 88.50867832357353
c 0 23.466659373263816 -5.741842187075189 6.74042343700131 -12.482265624076499 6.74042343700131
S 1226.459197394702 111.97533769683736 1226.459197394702 88.50867832357353
s 5.741842187075189 -6.74042343700131 12.482265624076499 -6.74042343700131
S 1251.423728642855 65.04201895030971 1251.423728642855 88.50867832357353
z" fill="none" stroke="none" style="animation-play-state:paused" ></path>


<circle cx="0" cy="0" r="7.429124006038879" fill="#4b9bbe" opacity="0.9" transform="translate(1246.151123046875 99.5550765991211)" style="opacity:0.9;animation-play-state:paused" ></circle>
<path id="path19" d="M 856.3832203640955 606.1233713952292
c 0 37.45894160383589 -9.165485711576865 10.759483226633714 -19.92496893821058 10.759483226633714
S 816.5332824876743 643.5823129990652 816.5332824876743 606.1233713952292
s 9.165485711576865 -10.759483226633714 19.92496893821058 -10.759483226633714
S 856.3832203640955 568.6644297913933 856.3832203640955 606.1233713952292
z" fill="none" stroke="none" style="animation-play-state:paused" ></path>


<circle cx="0" cy="0" r="6.9079150035453045" fill="#c93228" opacity="0.9" transform="translate(831.2461547851562 618.687744140625)" style="opacity:0.9;animation-play-state:paused" ></circle>
<path id="path20" d="M 906.3563349824599 82.45192835760334
c 0 35.12945013791534 -8.595503757149498 10.090373975784194 -18.685877732933694 10.090373975784194
S 868.9845795165925 117.58137849551868 868.9845795165925 82.45192835760334
s 8.595503757149498 -10.090373975784194 18.685877732933694 -10.090373975784194
S 906.3563349824599 47.322478219687994 906.3563349824599 82.45192835760334
z" fill="none" stroke="none" style="animation-play-state:paused" ></path>


<circle cx="0" cy="0" r="5.845069104485382" fill="#f9aa47" opacity="0.9" transform="translate(901.4218139648438 100.96702575683594)" style="opacity:0.9;animation-play-state:paused" ></circle>
<path id="path21" d="M 853.3231459125983 151.9602928453002
c 0 31.950802530967938 -7.817749555449601 9.177358173788663 -16.995107729238264 9.177358173788663
S 819.3329304541218 183.91109537626812 819.3329304541218 151.9602928453002
s 7.817749555449601 -9.177358173788663 16.995107729238264 -9.177358173788663
S 853.3231459125983 120.00949031433225 853.3231459125983 151.9602928453002
z" fill="none" stroke="none" style="animation-play-state:paused" ></path>


<circle cx="0" cy="0" r="6.524730618152263" fill="#f9aa47" opacity="0.9" transform="translate(829.5215454101562 139.4955596923828)" style="opacity:0.9;animation-play-state:paused" ></circle>
<path id="path22" d="M 1360.883782002169 710.2069682905044
c 0 18.92065448316587 -4.629521841625691 5.434656074951899 -10.06417791657759 5.434656074951899
S 1340.7554261690138 729.1276227736703 1340.7554261690138 710.2069682905044
s 4.629521841625691 -5.434656074951899 10.06417791657759 -5.434656074951899
S 1360.883782002169 691.2863138073385 1360.883782002169 710.2069682905044
z" fill="none" stroke="none" style="animation-play-state:paused" ></path>


<circle cx="0" cy="0" r="7.003435544416374" fill="#3e6d8d" opacity="0.9" transform="translate(1349.3751220703125 715.93603515625)" style="opacity:0.9;animation-play-state:paused" ></circle>
<path id="path23" d="M 571.6249255474704 322.9580657852771
c 0 24.406293880045713 -5.971752757883524 7.010318454906747 -12.982071212790272 7.010318454906747
S 545.6607831218898 347.3643596653228 545.6607831218898 322.9580657852771
s 5.971752757883524 -7.010318454906747 12.982071212790272 -7.010318454906747
S 571.6249255474704 298.55177190523136 571.6249255474704 322.9580657852771
z" fill="none" stroke="none" style="animation-play-state:paused" ></path>


<circle cx="0" cy="0" r="6.628781188583263" fill="#f9aa47" opacity="0.9" transform="translate(556.513427734375 330.4582214355469)" style="opacity:0.9;animation-play-state:paused" ></circle>
<path id="path24" d="M 471.4275411210147 572.4158357002598
c 0 23.491611338484546 -5.747947455161111 6.747590490841306 -12.495537946002418 6.747590490841306
S 446.4364652290099 595.9074470387443 446.4364652290099 572.4158357002598
s 5.747947455161111 -6.747590490841306 12.495537946002418 -6.747590490841306
S 471.4275411210147 548.9242243617753 471.4275411210147 572.4158357002598
z" fill="none" stroke="none" style="animation-play-state:paused" ></path>


<circle cx="0" cy="0" r="6.27403327873038" fill="#c93228" opacity="0.9" transform="translate(471.16619873046875 565.3692626953125)" style="opacity:0.9;animation-play-state:paused" ></circle>
<path id="path25" d="M 685.7127015756683 67.01537227495848
c 0 26.801184192725906 -6.5577365577946365 7.698212480889357 -14.255949038683992 7.698212480889357
S 657.2008034983004 93.81655646768439 657.2008034983004 67.01537227495848
s 6.5577365577946365 -7.698212480889357 14.255949038683992 -7.698212480889357
S 685.7127015756683 40.214188082232575 685.7127015756683 67.01537227495848
z" fill="none" stroke="none" style="animation-play-state:paused" ></path>


<circle cx="0" cy="0" r="7.756018393482124" fill="#4b9bbe" opacity="0.9" transform="translate(684.4756469726562 54.2721061706543)" style="opacity:0.9;animation-play-state:paused" ></circle>
<path id="path26" d="M 845.1561404269167 327.81763408185225
c 0 32.47364128356341 -7.945678186403812 9.32753526230013 -17.27321344870394 9.32753526230013
S 810.6097135295089 360.2912753654157 810.6097135295089 327.81763408185225
s 7.945678186403812 -9.32753526230013 17.27321344870394 -9.32753526230013
S 845.1561404269167 295.3439927982888 845.1561404269167 327.81763408185225
z" fill="none" stroke="none" style="animation-play-state:paused" ></path>


<circle cx="0" cy="0" r="7.836244952783562" fill="#4b9bbe" opacity="0.9" transform="translate(825.6203002929688 337.5684509277344)" style="opacity:0.9;animation-play-state:paused" ></circle>
<path id="path27" d="M 948.1564868813665 290.50026225150305
c 0 21.097032949227767 -5.162039976938708 6.059786059884571 -11.221826036823279 6.059786059884571
S 925.71283480772 311.5972952007308 925.71283480772 290.50026225150305
s 5.162039976938708 -6.059786059884571 11.221826036823279 -6.059786059884571
S 948.1564868813665 269.4032293022753 948.1564868813665 290.50026225150305
z" fill="none" stroke="none" style="animation-play-state:paused" ></path>


<circle cx="0" cy="0" r="7.7963972394939205" fill="#c93228" opacity="0.9" transform="translate(940.8057861328125 298.2348937988281)" style="opacity:0.9;animation-play-state:paused" ></circle>
<path id="path28" d="M 206.1516654978494 250.33411878143508
c 0 34.649259369564 -8.478010271276297 9.952446840193915 -18.43045711147021 9.952446840193915
S 169.29075127490896 284.9833781509991 169.29075127490896 250.33411878143508
s 8.478010271276297 -9.952446840193915 18.43045711147021 -9.952446840193915
S 206.1516654978494 215.6848594118711 206.1516654978494 250.33411878143508
z" fill="none" stroke="none" style="animation-play-state:paused" ></path>


<circle cx="0" cy="0" r="6.162183908338596" fill="#4b9bbe" opacity="0.9" transform="translate(169.37286376953125 255.7161407470703)" style="opacity:0.9;animation-play-state:paused" ></circle>
<path id="path29" d="M 824.140823975109 91.7210592148207
c 0 37.57861098963278 -9.194766518739934 10.793856348086011 -19.988622866825946 10.793856348086011
S 784.1635782414571 129.2996702044535 784.1635782414571 91.7210592148207
s 9.194766518739934 -10.793856348086011 19.988622866825946 -10.793856348086011
S 824.140823975109 54.14244822518792 824.140823975109 91.7210592148207
z" fill="none" stroke="none" style="animation-play-state:paused" ></path>


<circle cx="0" cy="0" r="7.577074731570723" fill="#eef3ef" opacity="0.9" transform="translate(796.6383056640625 77.46005249023438)" style="opacity:0.9;animation-play-state:paused" ></circle></g></svg>